<svg width="17" height="16" viewBox="0 0 17 16" fill="none" xmlns="http://www.w3.org/2000/svg">
<g clip-path="url(#clip0_351_1969)">
<path d="M16.7067 8.00002C16.7067 3.58174 13.1249 1.81198e-05 8.70667 1.81198e-05C4.28838 1.81198e-05 0.706665 3.58174 0.706665 8.00002C0.706665 11.993 3.63215 15.3027 7.45667 15.9028V10.3125H5.42542V8.00002H7.45667V6.23752C7.45667 4.23252 8.65101 3.12502 10.4784 3.12502C11.3536 3.12502 12.2692 3.28127 12.2692 3.28127V5.25002H11.2604C10.2666 5.25002 9.95667 5.86669 9.95667 6.49935V8.00002H12.1754L11.8207 10.3125H9.95667V15.9028C13.7812 15.3027 16.7067 11.993 16.7067 8.00002Z" fill="#1877F2"/>
<path d="M11.8207 10.3125L12.1754 8H9.95667V6.49933C9.95667 5.86667 10.2666 5.25 11.2604 5.25H12.2692V3.28125C12.2692 3.28125 11.3537 3.125 10.4784 3.125C8.65101 3.125 7.45667 4.2325 7.45667 6.2375V8H5.42542V10.3125H7.45667V15.9028C7.86396 15.9667 8.28142 16 8.70667 16C9.13192 16 9.54937 15.9667 9.95667 15.9028V10.3125H11.8207Z" fill="#FEFCFB"/>
</g>
<defs>
<clipPath id="clip0_351_1969">
<rect width="16" height="16" fill="white" transform="translate(0.706665)"/>
</clipPath>
</defs>
</svg>
