<svg width="16" height="16" viewBox="0 0 16 16" fill="none" xmlns="http://www.w3.org/2000/svg">
<g id="headphones">
<path id="Vector" d="M2 12V8C2 6.4087 2.63214 4.88258 3.75736 3.75736C4.88258 2.63214 6.4087 2 8 2C9.5913 2 11.1174 2.63214 12.2426 3.75736C13.3679 4.88258 14 6.4087 14 8V12" stroke="#FEFCFB" stroke-width="1.5" stroke-linecap="round" stroke-linejoin="round"/>
<path id="Vector_2" d="M14 12.6668C14 13.0205 13.8595 13.3596 13.6095 13.6096C13.3594 13.8597 13.0203 14.0002 12.6667 14.0002H12C11.6464 14.0002 11.3072 13.8597 11.0572 13.6096C10.8071 13.3596 10.6667 13.0205 10.6667 12.6668V10.6668C10.6667 10.3132 10.8071 9.97407 11.0572 9.72402C11.3072 9.47397 11.6464 9.3335 12 9.3335H14V12.6668ZM2 12.6668C2 13.0205 2.14048 13.3596 2.39052 13.6096C2.64057 13.8597 2.97971 14.0002 3.33333 14.0002H4C4.35362 14.0002 4.69276 13.8597 4.94281 13.6096C5.19286 13.3596 5.33333 13.0205 5.33333 12.6668V10.6668C5.33333 10.3132 5.19286 9.97407 4.94281 9.72402C4.69276 9.47397 4.35362 9.3335 4 9.3335H2V12.6668Z" stroke="#FEFCFB" stroke-width="1.5" stroke-linecap="round" stroke-linejoin="round"/>
</g>
</svg>
