<svg width="16" height="16" viewBox="0 0 16 16" fill="none" xmlns="http://www.w3.org/2000/svg">
<g id="help-circle" clip-path="url(#clip0_859_3026)">
<path id="Vector" d="M8.00016 14.6667C11.6821 14.6667 14.6668 11.6819 14.6668 8C14.6668 4.3181 11.6821 1.33334 8.00016 1.33334C4.31826 1.33334 1.3335 4.3181 1.3335 8C1.3335 11.6819 4.31826 14.6667 8.00016 14.6667Z" stroke="#FEFCFB" stroke-width="1.5" stroke-linecap="round" stroke-linejoin="round"/>
<path id="Vector_2" d="M6.06055 6.00012C6.21728 5.55457 6.52665 5.17886 6.93385 4.93954C7.34105 4.70023 7.81981 4.61275 8.28533 4.69259C8.75085 4.77244 9.17309 5.01447 9.47727 5.37581C9.78144 5.73714 9.94792 6.19447 9.94721 6.66679C9.94721 8.00012 7.94721 8.66679 7.94721 8.66679" stroke="#FEFCFB" stroke-width="1.5" stroke-linecap="round" stroke-linejoin="round"/>
<path id="Vector_3" d="M8 11.3333H8.00667" stroke="#FEFCFB" stroke-width="1.5" stroke-linecap="round" stroke-linejoin="round"/>
</g>
<defs>
<clipPath id="clip0_859_3026">
<rect width="16" height="16" fill="white"/>
</clipPath>
</defs>
</svg>
