<svg width="16" height="16" viewBox="0 0 16 16" fill="none" xmlns="http://www.w3.org/2000/svg">
<g id="server" clip-path="url(#clip0_859_3007)">
<path id="Vector" d="M13.3335 1.33333H2.66683C1.93045 1.33333 1.3335 1.93029 1.3335 2.66667V5.33333C1.3335 6.06971 1.93045 6.66667 2.66683 6.66667H13.3335C14.0699 6.66667 14.6668 6.06971 14.6668 5.33333V2.66667C14.6668 1.93029 14.0699 1.33333 13.3335 1.33333Z" stroke="#FEFCFB" stroke-width="1.5" stroke-linecap="round" stroke-linejoin="round"/>
<path id="Vector_2" d="M13.3335 9.33333H2.66683C1.93045 9.33333 1.3335 9.93029 1.3335 10.6667V13.3333C1.3335 14.0697 1.93045 14.6667 2.66683 14.6667H13.3335C14.0699 14.6667 14.6668 14.0697 14.6668 13.3333V10.6667C14.6668 9.93029 14.0699 9.33333 13.3335 9.33333Z" stroke="#FEFCFB" stroke-width="1.5" stroke-linecap="round" stroke-linejoin="round"/>
<path id="Vector_3" d="M4 4H4.00667" stroke="#FEFCFB" stroke-width="1.5" stroke-linecap="round" stroke-linejoin="round"/>
<path id="Vector_4" d="M4 12H4.00667" stroke="#FEFCFB" stroke-width="1.5" stroke-linecap="round" stroke-linejoin="round"/>
</g>
<defs>
<clipPath id="clip0_859_3007">
<rect width="16" height="16" fill="white"/>
</clipPath>
</defs>
</svg>
