<svg width="16" height="16" viewBox="0 0 16 16" fill="none" xmlns="http://www.w3.org/2000/svg">
<g clip-path="url(#clip0_349_1904)">
<path d="M12.6609 7.10588C10.1211 5.59753 5.93161 5.45884 3.507 6.19472C3.11762 6.31289 2.70587 6.09301 2.58793 5.70376C2.46991 5.31413 2.68948 4.90267 3.07914 4.78431C5.86244 3.93948 10.4893 4.10263 13.4132 5.8383C13.7634 6.04624 13.8783 6.49853 13.6707 6.84815C13.463 7.19835 13.0103 7.31379 12.6609 7.10588ZM12.5778 9.33996C12.3996 9.6291 12.0215 9.71981 11.7327 9.54225C9.61525 8.24065 6.3864 7.86359 3.88126 8.62403C3.55639 8.7222 3.21326 8.53902 3.11458 8.21477C3.01669 7.88991 3.19995 7.5474 3.52423 7.44861C6.386 6.5802 9.94363 7.00083 12.3757 8.49539C12.6644 8.67324 12.7553 9.05148 12.5778 9.33996ZM11.6136 11.4855C11.472 11.7177 11.1697 11.7905 10.9383 11.6489C9.08804 10.5181 6.75912 10.2627 4.0164 10.8891C3.7521 10.9497 3.48869 10.7841 3.42841 10.5198C3.36788 10.2556 3.53287 9.99219 3.79775 9.93188C6.79919 9.24573 9.37384 9.54104 11.4507 10.8101C11.6822 10.9515 11.7551 11.254 11.6136 11.4855ZM8.00005 0.120646C3.64842 0.120646 0.120636 3.64836 0.120636 7.99991C0.120636 12.352 3.64842 15.8794 8.00005 15.8794C12.3518 15.8794 15.8794 12.352 15.8794 7.99991C15.8794 3.64836 12.3518 0.120646 8.00005 0.120646Z" fill="#1ED760"/>
</g>
<defs>
<clipPath id="clip0_349_1904">
<rect width="16" height="16" fill="white"/>
</clipPath>
</defs>
</svg>
